<svg xmlns="http://www.w3.org/2000/svg" version="1.1" xmlns:xlink="http://www.w3.org/1999/xlink" xmlns:svgjs="http://svgjs.dev/svgjs" width="1000" height="196" viewBox="0 0 1000 196"><g transform="matrix(1,0,0,1,-0.6060606060606233,-0.5216720159367014)"><svg viewBox="0 0 396 78" data-background-color="#343a40" preserveAspectRatio="xMidYMid meet" height="196" width="1000" xmlns="http://www.w3.org/2000/svg" xmlns:xlink="http://www.w3.org/1999/xlink"><g id="tight-bounds" transform="matrix(1,0,0,1,0.2400000000000091,0.20760416960746397)"><svg viewBox="0 0 395.52 77.58479166078506" height="77.58479166078506" width="395.52"><g><svg viewBox="0 0 395.52 77.58479166078506" height="77.58479166078506" width="395.52"><g><svg viewBox="0 0 395.52 77.58479166078506" height="77.58479166078506" width="395.52"><g id="textblocktransform"><svg viewBox="0 0 395.52 77.58479166078506" height="77.58479166078506" width="395.52" id="textblock"><g><svg viewBox="0 0 395.52 77.58479166078506" height="77.58479166078506" width="395.52"><rect width="395.52" height="77.58479166078506" x="0" y="0" opacity="1" fill="#e9ecef" data-fill-palette-color="tertiary"></rect><g transform="matrix(1,0,0,1,23.607599999999998,23.607599999999998)"><svg width="348.3048" viewBox="0.49000000953674316 -38.66999816894531 449.6600036621094 39.209999084472656" height="30.36959166078506" data-palette-color="#444444"><path d="M17.33 0L0.49-38.16 8.94-38.16 19.29-13.53 21.68-7.57 23.56-13.53 27.37-22.51 20.51-38.16 28.47-38.16 31.27-30.71 33.89-38.16 41.85-38.16 34.99-22.51 38.87-13.33 41.21-7.57 43.02-13.43 53.42-38.16 61.87-38.16 45.02 0 37.35 0 33.96-7.57 31.2-14.92 28.44-7.57 25 0 17.33 0ZM67.77 0L67.77-38.16 100.27-38.16 100.27-31.37 75.51-31.37 75.51-23.75 97.43-23.75 97.43-17.38 75.51-17.38 75.51-6.76 100.78-6.76 100.78 0 67.77 0ZM109.37 0L109.37-38.16 117.11-38.16 117.11-6.79 139.3-6.79 139.3 0 109.37 0ZM146.79 0L146.79-38.16 154.53-38.16 154.53-6.79 176.73-6.79 176.73 0 146.79 0ZM184.22 0L184.22-38.16 198.21-38.16Q204.34-38.16 208.85-36.84 213.37-35.52 216.34-33.07 219.3-30.62 220.75-27.11 222.21-23.61 222.21-19.24L222.21-19.24Q222.21-15.09 220.77-11.56 219.33-8.03 216.37-5.46 213.42-2.88 208.9-1.43 204.38 0.02 198.26 0.02L198.26 0.02 184.22 0ZM191.96-6.69L200.11-6.69Q203.58-6.69 206.19-7.58 208.8-8.47 210.55-10.11 212.29-11.74 213.17-14.06 214.05-16.38 214.05-19.24L214.05-19.24Q214.05-22.05 213.17-24.3 212.29-26.56 210.55-28.14 208.8-29.71 206.19-30.57 203.58-31.42 200.11-31.42L200.11-31.42 191.96-31.42 191.96-6.69ZM227.72-19.19L227.72-19.19Q227.72-23.51 229.31-27.1 230.9-30.69 233.76-33.26 236.63-35.84 240.65-37.26 244.67-38.67 249.55-38.67L249.55-38.67Q254.41-38.67 258.43-37.26 262.46-35.84 265.33-33.26 268.2-30.69 269.79-27.1 271.37-23.51 271.37-19.19L271.37-19.19Q271.37-14.84 269.79-11.22 268.2-7.59 265.33-4.98 262.46-2.37 258.43-0.92 254.41 0.54 249.55 0.54L249.55 0.54Q244.67 0.54 240.65-0.92 236.63-2.37 233.76-4.98 230.9-7.59 229.31-11.22 227.72-14.84 227.72-19.19ZM235.46-19.19L235.46-19.19Q235.46-16.24 236.52-13.87 237.59-11.5 239.48-9.83 241.37-8.15 243.95-7.25 246.52-6.35 249.55-6.35L249.55-6.35Q252.58-6.35 255.15-7.25 257.73-8.15 259.61-9.83 261.49-11.5 262.56-13.87 263.63-16.24 263.63-19.19L263.63-19.19Q263.63-22.14 262.56-24.49 261.49-26.83 259.61-28.45 257.73-30.08 255.15-30.93 252.58-31.79 249.55-31.79L249.55-31.79Q246.52-31.79 243.95-30.93 241.37-30.08 239.48-28.45 237.59-26.83 236.52-24.49 235.46-22.14 235.46-19.19ZM279.92 0L279.92-38.16 287.66-38.16 311.44-25.71 311.44-38.16 319.17-38.16 319.17 0 311.44 0 311.44-17.5 287.66-29.88 287.66 0 279.92 0ZM325.06 0L342.98-38.16 351.18-38.16 369.64 0 361.51 0 358.45-6.42 336.16-6.42 333.21 0 325.06 0ZM339.12-12.79L355.4-12.79 347.15-30.13 339.12-12.79ZM387.06 0L387.06-31.37 372.98-31.37 372.98-38.16 408.89-38.16 408.89-31.37 394.8-31.37 394.8 0 387.06 0ZM417.14 0L417.14-38.16 449.64-38.16 449.64-31.37 424.88-31.37 424.88-23.75 446.8-23.75 446.8-17.38 424.88-17.38 424.88-6.76 450.15-6.76 450.15 0 417.14 0Z" opacity="1" transform="matrix(1,0,0,1,0,0)" fill="#444444" class="wordmark-text-0" data-fill-palette-color="quaternary" id="text-0"></path></svg></g></svg></g></svg></g></svg></g><g></g></svg></g><defs></defs></svg><rect width="395.52" height="77.58479166078506" fill="none" stroke="none" visibility="hidden"></rect></g></svg></g></svg>